<?xml version="1.0" standalone="no"?>
<!DOCTYPE svg PUBLIC "-//W3C//DTD SVG 20010904//EN"
 "http://www.w3.org/TR/2001/REC-SVG-20010904/DTD/svg10.dtd">
<svg version="1.0" xmlns="http://www.w3.org/2000/svg"
 width="320.000000pt" height="320.000000pt" viewBox="0 0 320.000000 320.000000"
 preserveAspectRatio="xMidYMid meet">
<metadata>
Created by potrace 1.11, written by Peter Selinger 2001-2013
</metadata>
<g transform="translate(0.000000,320.000000) scale(0.100000,-0.100000)"
fill="#000000" stroke="none">
<path d="M1375 3005 c-47 -25 -56 -26 -159 -20 -97 5 -114 3 -152 -15 -23 -12
-59 -41 -79 -66 -20 -24 -54 -53 -75 -64 -53 -27 -94 -80 -109 -142 -7 -29
-19 -63 -27 -75 -8 -12 -14 -30 -14 -40 0 -11 -9 -43 -19 -73 -11 -30 -27 -92
-37 -136 -16 -77 -16 -85 0 -132 15 -47 15 -55 0 -97 -14 -43 -14 -48 0 -64
21 -24 20 -44 -4 -66 -21 -19 -28 -79 -11 -90 6 -3 20 8 32 25 27 36 43 38 65
6 8 -14 25 -26 37 -28 32 -4 34 -34 3 -42 -24 -6 -26 -11 -26 -61 0 -37 6 -65
20 -87 11 -18 20 -40 20 -48 0 -9 11 -32 25 -52 14 -20 25 -51 25 -67 0 -21 5
-31 15 -31 32 0 45 -89 18 -118 -18 -19 -17 -56 1 -49 17 7 28 -17 14 -31 -6
-6 -6 -12 1 -16 6 -4 11 -15 11 -25 0 -10 7 -24 15 -31 8 -7 15 -23 15 -36 0
-12 5 -26 10 -29 6 -4 8 -15 5 -25 -8 -26 35 -110 57 -110 15 0 18 -9 18 -57
1 -54 4 -62 43 -105 42 -47 43 -48 140 -63 86 -14 103 -14 145 -1 43 13 133
56 157 76 10 8 87 31 115 35 40 4 60 19 72 51 7 21 21 37 34 40 13 3 25 12 28
20 8 22 56 37 72 23 24 -20 16 -65 -31 -171 -58 -131 -61 -134 -109 -114 -53
22 -177 46 -206 40 -51 -12 -53 -13 -40 -29 10 -13 6 -18 -26 -32 -31 -14 -71
-17 -199 -18 -169 -1 -185 -4 -237 -52 -14 -14 -31 -22 -37 -19 -17 11 -13
108 9 207 12 51 18 94 16 97 -8 7 -38 -31 -103 -128 -67 -101 -92 -130 -110
-130 -13 0 -114 -55 -248 -135 -39 -23 -97 -52 -130 -64 -33 -12 -80 -34 -105
-49 -68 -40 -130 -62 -179 -62 -39 0 -49 -5 -92 -49 l-49 -48 0 -167 0 -166
506 0 506 0 -6 42 c-17 118 -36 334 -36 420 0 149 17 174 89 131 41 -24 42
-26 26 -46 -18 -25 -49 -91 -60 -125 -6 -20 1 -26 58 -53 l65 -30 58 20 c33
11 95 28 139 37 44 8 85 20 91 25 11 9 140 30 198 33 16 0 31 7 34 14 2 6 16
12 32 12 23 0 29 -5 34 -31 6 -32 -29 -106 -129 -279 -17 -30 -46 -81 -63
-112 l-32 -58 845 0 845 0 0 145 c0 155 -4 172 -57 243 -21 28 -30 32 -72 32
-34 0 -56 7 -81 25 -18 13 -54 32 -79 42 -25 9 -71 32 -101 50 -30 18 -61 33
-67 33 -7 0 -43 13 -80 29 -38 16 -117 48 -178 72 -60 23 -121 50 -135 60 -41
27 -141 75 -197 93 -41 14 -65 31 -110 81 -68 73 -120 156 -129 204 -6 30 -5
34 11 27 16 -6 17 -2 11 44 -6 43 -3 56 16 82 17 24 22 45 22 85 -1 29 3 53 9
53 5 0 4 7 -3 15 -9 11 -10 36 -5 89 l6 74 39 6 c51 8 90 57 71 89 -11 17 -11
19 3 14 8 -3 18 -2 21 2 2 5 -5 12 -18 16 -21 6 -21 7 8 20 25 11 35 26 52 77
12 34 25 81 29 103 3 22 13 64 21 93 14 52 14 53 -17 118 -18 36 -30 68 -27
71 3 3 -6 35 -20 72 -44 115 -48 278 -5 263 6 -2 12 0 12 5 0 5 9 19 21 31 26
29 20 47 -37 106 -60 63 -139 99 -229 106 -70 5 -70 5 -67 33 2 18 -1 26 -7
22 -12 -7 -31 33 -36 78 -6 39 -9 42 -57 56 -24 7 -56 20 -73 28 -28 16 -77
25 -190 38 -41 5 -59 1 -100 -20z m409 -363 c44 -32 52 -45 69 -102 11 -36 23
-74 28 -85 15 -40 16 -79 2 -112 -10 -25 -10 -33 -2 -27 9 5 10 1 7 -14 -4
-12 -2 -22 3 -22 5 0 9 -7 9 -16 0 -10 -6 -14 -15 -10 -9 3 -15 0 -15 -9 0 -8
-13 -15 -32 -17 -24 -2 -34 -8 -36 -23 -3 -22 -59 -45 -109 -45 -22 0 -25 -2
-13 -10 12 -8 10 -10 -10 -11 -76 -3 -115 -11 -130 -24 -9 -8 -21 -15 -27 -15
-6 0 -13 -6 -15 -12 -3 -7 -20 -13 -39 -13 -30 -1 -34 -3 -31 -24 1 -13 -3
-29 -8 -36 -8 -10 -4 -15 20 -20 22 -5 30 -12 31 -28 0 -12 5 -58 11 -102 5
-44 10 -106 11 -139 1 -70 -9 -80 -85 -89 -28 -4 -56 -11 -62 -17 -5 -5 -21
-10 -35 -10 l-26 -1 24 -19 c13 -11 34 -20 48 -20 18 0 28 -9 39 -35 8 -20 19
-33 24 -30 6 4 8 11 5 16 -4 5 2 9 13 9 12 0 23 -12 32 -35 11 -28 19 -35 42
-35 15 0 28 -5 28 -11 0 -7 -13 -8 -38 -4 -29 5 -42 2 -52 -9 -15 -19 -41 -21
-57 -5 -8 8 -28 8 -75 0 -35 -6 -80 -8 -100 -5 -25 5 -38 3 -38 -5 0 -6 -7
-11 -15 -11 -16 0 -16 -1 -20 -39 -2 -20 -19 -40 -36 -41 -11 0 -24 116 -18
160 4 25 5 47 3 49 -2 2 -19 4 -39 4 -31 1 -35 4 -32 22 3 11 1 31 -3 45 -5
16 -8 19 -9 8 -2 -28 -14 -21 -49 30 -95 135 -92 127 -91 258 3 248 -15 415
-37 330 -3 -14 -11 -26 -16 -26 -5 0 2 20 16 44 19 32 26 57 25 89 -2 50 35
141 72 175 39 37 158 92 198 92 21 0 41 -3 44 -7 4 -3 76 -8 159 -10 169 -3
256 12 265 46 3 12 20 22 46 29 72 17 90 14 141 -26z m-951 -302 c-5 -19 -23
-39 -23 -25 0 9 20 45 24 45 2 0 2 -9 -1 -20z m860 -401 c27 0 29 -2 12 -9
-26 -11 -85 -12 -85 -2 0 15 13 23 28 17 7 -3 28 -5 45 -6z m-84 -30 c21 -26
106 -38 140 -20 18 10 21 9 21 -8 0 -14 5 -19 16 -14 11 4 14 1 12 -10 -3 -15
0 -17 21 -17 5 0 12 11 15 25 7 27 26 34 26 9 0 -8 5 -12 10 -9 6 4 10 -11 10
-37 0 -44 -24 -93 -41 -83 -5 4 -9 -1 -9 -9 0 -8 -7 -19 -16 -24 -9 -5 -15
-13 -15 -18 1 -5 -2 -9 -7 -9 -12 0 -48 -38 -55 -57 -8 -22 -55 -20 -77 2 -53
54 -70 84 -70 118 1 21 -2 52 -6 70 -4 22 -2 32 5 32 7 0 9 -4 6 -10 -3 -5 1
-10 9 -10 9 0 16 -4 16 -8 0 -9 79 -14 93 -5 11 7 -52 37 -71 34 -7 -1 -15 5
-18 13 -3 9 -21 18 -40 22 -38 7 -39 9 -21 29 17 20 26 18 46 -6z m-44 -239
c3 -5 1 -10 -4 -10 -6 0 -11 5 -11 10 0 6 2 10 4 10 3 0 8 -4 11 -10z m85
-115 c18 -17 19 -20 5 -28 -9 -5 -18 -7 -19 -5 -30 45 -34 56 -21 54 8 -1 23
-11 35 -21z m-590 -40 c0 -8 -4 -15 -9 -15 -13 0 -22 16 -14 24 11 11 23 6 23
-9z m400 -121 c83 -7 81 -6 70 -24 -9 -13 -11 -13 -19 -1 -8 12 -12 11 -27 -3
-15 -15 -33 -17 -131 -14 -72 2 -112 -1 -110 -7 2 -5 13 -11 24 -13 11 -2 25
-14 31 -27 11 -23 10 -23 -19 -13 -16 5 -36 7 -44 4 -8 -3 -15 -1 -15 4 0 6
-6 10 -13 10 -7 0 -20 9 -30 20 -14 17 -14 20 -2 20 8 0 15 5 15 12 0 6 8 20
18 31 18 20 40 20 252 1z m-60 -121 c1 -17 1 -17 14 0 22 28 29 19 10 -13 -14
-22 -23 -28 -40 -24 -14 4 -23 0 -28 -12 -6 -15 -9 -14 -26 6 -19 22 -19 24
-4 42 22 24 74 24 74 1z m500 -123 c0 -5 -4 -10 -10 -10 -5 0 -10 5 -10 10 0
6 5 10 10 10 6 0 10 -4 10 -10z m-27 -501 c-6 -22 -18 -17 -26 10 -3 14 0 17
13 14 12 -3 16 -11 13 -24z m-263 7 c0 -2 -7 -9 -15 -16 -12 -10 -15 -10 -15
4 0 9 7 16 15 16 8 0 15 -2 15 -4z m17 -68 c-21 -13 -37 -9 -37 11 0 17 3 18
24 8 16 -8 21 -14 13 -19z m43 22 c0 -5 -4 -10 -10 -10 -5 0 -10 5 -10 10 0 6
5 10 10 10 6 0 10 -4 10 -10z m-454 -117 c-10 -10 -19 5 -10 18 6 11 8 11 12
0 2 -7 1 -15 -2 -18z"/>
<path d="M1021 2098 c-28 -14 -41 -27 -42 -42 -2 -24 -6 -55 -15 -108 -8 -47
10 -57 56 -33 17 9 39 15 48 13 9 -1 23 1 29 5 7 4 22 3 34 -4 12 -6 34 -8 50
-5 16 3 29 2 29 -3 0 -12 -26 -21 -63 -22 -30 0 -31 -1 -9 -10 24 -9 102 -2
102 10 0 4 19 12 43 19 31 10 46 21 56 42 7 17 11 36 8 42 -2 7 2 21 11 31 12
14 13 17 1 17 -11 0 -11 2 1 10 12 7 8 11 -17 16 -18 3 -31 11 -30 17 1 5 -18
11 -43 13 -208 13 -207 13 -249 -8z"/>
<path d="M1208 1610 c-21 -22 -38 -50 -38 -63 0 -13 -13 -34 -30 -49 -41 -36
-38 -52 5 -27 19 12 35 25 35 29 0 4 18 35 40 68 60 89 53 112 -12 42z"/>
<path d="M1748 1843 c-29 -7 -21 -23 12 -23 22 0 28 4 24 15 -6 16 -7 16 -36
8z"/>
</g>
</svg>
